<svg width="90" height="51" viewBox="0 0 90 51" fill="none" xmlns="http://www.w3.org/2000/svg">
<g clip-path="url(#clip0_39_117)">
<path d="M77.7825 0H0V38.2869C0.000238625 41.5272 1.28748 44.6347 3.57863 46.926C5.86978 49.2174 8.97721 50.5048 12.2175 50.5053H90V12.2175C90 8.97722 88.7128 5.86965 86.4216 3.57842C84.1304 1.2872 81.0228 0 77.7825 0V0Z" fill="#034C8C"/>
<path d="M12.1572 17.7444C12.1604 18.1894 12.0315 18.6253 11.787 18.9971C11.5424 19.3689 11.1931 19.6598 10.7832 19.833C10.3733 20.0063 9.92123 20.0541 9.48416 19.9704C9.04709 19.8867 8.64466 19.6753 8.32773 19.3629C8.01081 19.0505 7.79364 18.6512 7.70368 18.2154C7.61372 17.7796 7.65502 17.3269 7.82234 16.9145C7.98967 16.5022 8.27551 16.1487 8.64372 15.8988C9.01193 15.6489 9.44598 15.5138 9.89097 15.5106H9.92337C10.2151 15.5089 10.5042 15.5647 10.7744 15.6748C11.0445 15.7849 11.2903 15.9472 11.4977 16.1523C11.7051 16.3573 11.8701 16.6013 11.9833 16.8701C12.0964 17.139 12.1555 17.4275 12.1572 17.7192V17.7444ZM11.79 34.8696H7.85967V21.6603H11.79V34.8696Z" fill="white"/>
<path d="M18.6156 23.7015C19.7181 22.4289 20.9628 21.5811 22.8573 21.5811C25.2603 21.5811 26.5608 22.9662 27.1269 24.1254C27.6075 25.0866 27.6354 26.0199 27.6354 27.1791V34.8696H23.5071V27.5184C23.5071 26.6985 23.5071 26.1333 23.3091 25.6518C23.0265 24.8607 22.2912 24.4368 21.4713 24.4368C19.8315 24.4368 18.7857 26.1891 18.6156 26.4726V34.8696H14.5161V21.8349H18.6156V23.7015Z" fill="white"/>
<path d="M34.732 28.2816L39.8773 21.8349H44.6563L39.5668 28.2816L44.8822 34.8696H39.8773L34.732 28.4517V34.8696H30.6001V17.55H34.7284L34.732 28.2816Z" fill="white"/>
<path d="M59.0473 34.8696H54.919V33.0039C53.5051 35.0109 51.6106 35.1243 50.7907 35.1243C48.1609 35.1243 46.8037 33.4845 46.3231 32.2443C46.0405 31.4532 46.0405 30.69 46.0405 29.9826V21.8349H50.1688V28.791C50.1688 30.3741 50.1688 32.2686 52.1488 32.2686C52.6582 32.2686 53.8174 32.1273 54.9199 30.4308V21.8349H59.0482L59.0473 34.8696Z" fill="white"/>
<path d="M82.2311 34.8696H77.057L75.4739 31.05H66.8501L65.4101 34.8669H60.3188L68.0939 15.8607H73.664L82.2311 34.8696ZM70.9496 20.2239L68.1218 27.6876H74.0618L70.9496 20.2239Z" fill="white"/>
</g>
<defs>
<clipPath id="clip0_39_117">
<rect width="90" height="50.5053" fill="white"/>
</clipPath>
</defs>
</svg>
