<svg width="26" height="26" viewBox="0 0 26 26" fill="none" xmlns="http://www.w3.org/2000/svg">
<path d="M17 13C17 13.7911 16.7654 14.5645 16.3259 15.2223C15.8864 15.8801 15.2616 16.3928 14.5307 16.6955C13.7998 16.9983 12.9956 17.0775 12.2196 16.9231C11.4437 16.7688 10.731 16.3878 10.1716 15.8284C9.61216 15.269 9.2312 14.5563 9.07686 13.7804C8.92252 13.0044 9.00173 12.2002 9.30448 11.4693C9.60723 10.7384 10.1199 10.1136 10.7777 9.67412C11.4355 9.2346 12.2089 9 13 9C14.0599 9.0033 15.0754 9.42578 15.8248 10.1752C16.5742 10.9246 16.9967 11.9401 17 13ZM25.5 7.5V18.5C25.5 20.3565 24.7625 22.137 23.4497 23.4497C22.137 24.7625 20.3565 25.5 18.5 25.5H7.5C5.64348 25.5 3.86301 24.7625 2.55025 23.4497C1.2375 22.137 0.5 20.3565 0.5 18.5V7.5C0.5 5.64348 1.2375 3.86301 2.55025 2.55025C3.86301 1.2375 5.64348 0.5 7.5 0.5H18.5C20.3565 0.5 22.137 1.2375 23.4497 2.55025C24.7625 3.86301 25.5 5.64348 25.5 7.5ZM19 13C19 11.8133 18.6481 10.6533 17.9888 9.66658C17.3295 8.67988 16.3925 7.91085 15.2961 7.45672C14.1997 7.0026 12.9933 6.88378 11.8295 7.11529C10.6656 7.3468 9.59647 7.91824 8.75736 8.75736C7.91824 9.59647 7.3468 10.6656 7.11529 11.8295C6.88378 12.9933 7.0026 14.1997 7.45672 15.2961C7.91085 16.3925 8.67988 17.3295 9.66658 17.9888C10.6533 18.6481 11.8133 19 13 19C14.5913 19 16.1174 18.3679 17.2426 17.2426C18.3679 16.1174 19 14.5913 19 13ZM21 6.5C21 6.20333 20.912 5.91332 20.7472 5.66665C20.5824 5.41997 20.3481 5.22771 20.074 5.11418C19.7999 5.00065 19.4983 4.97094 19.2074 5.02882C18.9164 5.0867 18.6491 5.22956 18.4393 5.43934C18.2296 5.64912 18.0867 5.91639 18.0288 6.20736C17.9709 6.49834 18.0007 6.79994 18.1142 7.07403C18.2277 7.34811 18.42 7.58238 18.6666 7.7472C18.9133 7.91203 19.2033 8 19.5 8C19.8978 8 20.2794 7.84196 20.5607 7.56066C20.842 7.27936 21 6.89782 21 6.5Z" fill="#51565E"/>
</svg>
