<svg width="18" height="30" viewBox="0 0 18 30" fill="none" xmlns="http://www.w3.org/2000/svg">
<path d="M0.0665359 15C0.0665359 14.6444 0.133204 14.3004 0.266537 13.968C0.39987 13.6337 0.577648 13.3555 0.79987 13.1333L13.0665 0.866633C13.5554 0.377744 14.1776 0.133301 14.9332 0.133301C15.6888 0.133301 16.311 0.377744 16.7999 0.866633C17.2888 1.35552 17.5332 1.97775 17.5332 2.7333C17.5332 3.48886 17.2888 4.11108 16.7999 4.59997L6.39987 15L16.7999 25.4C17.2888 25.8889 17.5332 26.5111 17.5332 27.2666C17.5332 28.0222 17.2888 28.6444 16.7999 29.1333C16.311 29.6222 15.6888 29.8666 14.9332 29.8666C14.1776 29.8666 13.5554 29.6222 13.0665 29.1333L0.79987 16.8666C0.533203 16.6 0.344759 16.3111 0.234537 16C0.122538 15.6889 0.0665359 15.3555 0.0665359 15Z" fill="black"/>
</svg>
