<svg width="18" height="30" viewBox="0 0 18 30" fill="none" xmlns="http://www.w3.org/2000/svg">
<path d="M17.9335 15C17.9335 15.3556 17.8668 15.6996 17.7335 16.032C17.6001 16.3663 17.4224 16.6445 17.2001 16.8667L4.93346 29.1334C4.44458 29.6223 3.82235 29.8667 3.0668 29.8667C2.31124 29.8667 1.68902 29.6223 1.20013 29.1334C0.71124 28.6445 0.466797 28.0223 0.466797 27.2667C0.466797 26.5111 0.71124 25.8889 1.20013 25.4L11.6001 15L1.20013 4.60003C0.71124 4.11115 0.466797 3.48892 0.466797 2.73336C0.466797 1.97781 0.71124 1.35559 1.20013 0.866701C1.68902 0.377811 2.31124 0.133364 3.0668 0.133364C3.82235 0.133364 4.44458 0.377811 4.93346 0.866701L17.2001 13.1334C17.4668 13.4 17.6552 13.6889 17.7655 14C17.8775 14.3111 17.9335 14.6445 17.9335 15Z" fill="black"/>
</svg>
