<svg width="524" height="528" viewBox="0 0 524 528" fill="none" xmlns="http://www.w3.org/2000/svg">
<g opacity="0.18" filter="url(#filter0_f_364_160)">
<path fill-rule="evenodd" clip-rule="evenodd" d="M260.026 51.4503C289.188 53.1586 318.218 62.2751 342.177 79.5521C364.927 95.9572 373.167 126.112 392.323 146.852C413.562 169.847 448.07 179.722 461.237 208.457C474.625 237.676 477.786 274.956 464.413 304.182C450.895 333.724 407.134 335.715 390.338 363.4C370.495 396.106 395.022 456.821 361.496 473.818C328.106 490.747 296.845 434.866 260.026 429.467C229.971 425.06 201.458 451.199 171.528 445.964C139.434 440.351 103.641 427.662 86.4155 399.104C68.9164 370.093 88.1671 331.542 82.2233 297.907C76.589 266.024 43.7533 238.094 52.4604 206.958C61.3077 175.32 103.643 169.026 125.077 144.666C144.861 122.181 148.821 86.543 173.266 69.6576C198.116 52.4929 230.189 49.7026 260.026 51.4503Z" fill="url(#paint0_diamond_364_160)"/>
</g>
<defs>
<filter id="filter0_f_364_160" x="0.850895" y="0.850895" width="522.298" height="526.298" filterUnits="userSpaceOnUse" color-interpolation-filters="sRGB">
<feFlood flood-opacity="0" result="BackgroundImageFix"/>
<feBlend mode="normal" in="SourceGraphic" in2="BackgroundImageFix" result="shape"/>
<feGaussianBlur stdDeviation="25.0746" result="effect1_foregroundBlur_364_160"/>
</filter>
<radialGradient id="paint0_diamond_364_160" cx="0" cy="0" r="1" gradientUnits="userSpaceOnUse" gradientTransform="translate(335.096 130.875) rotate(101.925) scale(353.759 350.723)">
<stop stop-color="#FFC700"/>
<stop offset="1" stop-color="#0945DF"/>
</radialGradient>
</defs>
</svg>
