<svg id="Capa_1" data-name="Capa 1" xmlns="http://www.w3.org/2000/svg" xmlns:xlink="http://www.w3.org/1999/xlink" viewBox="0 0 1590 944"><defs><style>.cls-1,.cls-11,.cls-13{fill:#fff;}.cls-2{opacity:0.7;}.cls-3{fill:#3d83bf;}.cls-4{fill:#4594d9;}.cls-5{fill:#15294a;}.cls-26,.cls-6{fill:#1c3661;}.cls-7{fill:#034178;}.cls-8{fill:#034c8c;}.cls-9{fill:#33bee8;}.cls-10,.cls-11{opacity:0.6;}.cls-12{fill:#ed6938;}.cls-13,.cls-24{opacity:0.5;}.cls-14{fill:#ffc0bb;}.cls-15{fill:#6f549f;}.cls-16,.cls-27{fill:#f3aa27;}.cls-17{fill:#d96033;}.cls-18{fill:#282828;}.cls-19,.cls-24{fill:#e6e6e6;}.cls-20{fill:url(#linear-gradient);}.cls-21{fill:url(#linear-gradient-2);}.cls-22{fill:#752911;}.cls-23{fill:#57427d;}.cls-25{fill:#e09d24;}.cls-26,.cls-27{opacity:0.63;}.cls-28{fill:url(#linear-gradient-3);}.cls-29{fill:url(#linear-gradient-4);}.cls-30{fill:url(#linear-gradient-5);}.cls-31{fill:url(#linear-gradient-6);}.cls-32{fill:url(#linear-gradient-7);}.cls-33{fill:url(#linear-gradient-8);}.cls-34{fill:url(#linear-gradient-9);}.cls-35{fill:url(#linear-gradient-10);}.cls-36{fill:url(#linear-gradient-11);}.cls-37{fill:url(#linear-gradient-12);}</style><linearGradient id="linear-gradient" x1="6394.5" y1="308.85" x2="6358.77" y2="349.76" gradientTransform="translate(-6108.89)" gradientUnits="userSpaceOnUse"><stop offset="0" stop-color="#fdf53f"/><stop offset="1" stop-color="#d93c65"/></linearGradient><linearGradient id="linear-gradient-2" x1="6405.43" y1="297.82" x2="6386.6" y2="322.18" gradientTransform="translate(-6108.89)" gradientUnits="userSpaceOnUse"><stop offset="0" stop-color="#53d8ff"/><stop offset="1" stop-color="#3840f7"/></linearGradient><linearGradient id="linear-gradient-3" x1="1101.56" y1="654.81" x2="1147.12" y2="721.99" gradientTransform="translate(103.61)" gradientUnits="userSpaceOnUse"><stop offset="0" stop-color="#a22b25"/><stop offset="1" stop-color="#c0423c"/></linearGradient><linearGradient id="linear-gradient-4" x1="1099.69" y1="655.02" x2="1089.29" y2="634.03" xlink:href="#linear-gradient-3"/><linearGradient id="linear-gradient-5" x1="1270.36" y1="876.49" x2="1278.19" y2="876.49" gradientTransform="matrix(-1, 0, 0, 1, 2540.89, 0)" xlink:href="#linear-gradient-3"/><linearGradient id="linear-gradient-6" x1="1242.15" y1="876.09" x2="1248.91" y2="876.09" gradientTransform="matrix(-1, 0, 0, 1, 2540.89, 0)" xlink:href="#linear-gradient-3"/><linearGradient id="linear-gradient-7" x1="1103.9" y1="653.22" x2="1149.46" y2="720.4" xlink:href="#linear-gradient-3"/><linearGradient id="linear-gradient-8" x1="1278.48" y1="661.6" x2="1268.31" y2="742.32" gradientTransform="matrix(1, 0, 0, 1, 0, 0)" xlink:href="#linear-gradient-3"/><linearGradient id="linear-gradient-9" x1="-6516.26" y1="-1987.7" x2="-6522.62" y2="-1963.97" gradientTransform="matrix(-0.75, -0.67, -0.67, 0.75, -4718.96, -2584.95)" xlink:href="#linear-gradient-3"/><linearGradient id="linear-gradient-10" x1="-6524.04" y1="-1989.78" x2="-6530.4" y2="-1966.06" gradientTransform="matrix(-0.75, -0.67, -0.67, 0.75, -4718.96, -2584.95)" xlink:href="#linear-gradient-3"/><linearGradient id="linear-gradient-11" x1="1312.33" y1="787.78" x2="1319.66" y2="694.34" gradientTransform="matrix(1, 0, 0, 1, 0, 0)" xlink:href="#linear-gradient-3"/><linearGradient id="linear-gradient-12" x1="1309.7" y1="787.57" x2="1317.04" y2="694.13" gradientTransform="matrix(1, 0, 0, 1, 0, 0)" xlink:href="#linear-gradient-3"/></defs><path class="cls-1" d="M1031.29,813.94H665V484a25.7,25.7,0,0,1,25.69-25.7H1005.6a25.7,25.7,0,0,1,25.69,25.7Z"/><path class="cls-1" d="M990.09,813.94H623.78V484a25.7,25.7,0,0,1,25.69-25.7H964.39a25.7,25.7,0,0,1,25.7,25.7Z"/><g class="cls-2"><path class="cls-3" d="M1031.29,813.94H665V484a25.7,25.7,0,0,1,25.69-25.7H1005.6a25.7,25.7,0,0,1,25.69,25.7Z"/><path class="cls-4" d="M990.09,813.94H623.78V484a25.7,25.7,0,0,1,25.69-25.7H964.39a25.7,25.7,0,0,1,25.7,25.7Z"/></g><path class="cls-1" d="M390.38,285.79H591.12a40.42,40.42,0,0,1,40.42,40.42V813.94a0,0,0,0,1,0,0H350a0,0,0,0,1,0,0V326.21A40.42,40.42,0,0,1,390.38,285.79Z"/><path class="cls-1" d="M354,285.79H554.78a40.42,40.42,0,0,1,40.42,40.42V813.94a0,0,0,0,1,0,0H313.62a0,0,0,0,1,0,0V326.21A40.42,40.42,0,0,1,354,285.79Z"/><path class="cls-1" d="M1099.3,346.71h217.6a40.42,40.42,0,0,1,40.42,40.42V813.94a0,0,0,0,1,0,0H1058.88a0,0,0,0,1,0,0V387.13A40.42,40.42,0,0,1,1099.3,346.71Z"/><path class="cls-1" d="M1060.78,346.71h217.6a40.42,40.42,0,0,1,40.42,40.42V813.94a0,0,0,0,1,0,0H1020.35a0,0,0,0,1,0,0V387.13A40.42,40.42,0,0,1,1060.78,346.71Z"/><g class="cls-2"><path class="cls-5" d="M1099.3,346.71h217.6a40.42,40.42,0,0,1,40.42,40.42V813.94a0,0,0,0,1,0,0H1058.88a0,0,0,0,1,0,0V387.13A40.42,40.42,0,0,1,1099.3,346.71Z"/><path class="cls-6" d="M1060.78,346.71h217.6a40.42,40.42,0,0,1,40.42,40.42V813.94a0,0,0,0,1,0,0H1020.35a0,0,0,0,1,0,0V387.13A40.42,40.42,0,0,1,1060.78,346.71Z"/></g><g class="cls-2"><path class="cls-7" d="M390.38,285.79H591.12a40.42,40.42,0,0,1,40.42,40.42V813.94a0,0,0,0,1,0,0H350a0,0,0,0,1,0,0V326.21A40.42,40.42,0,0,1,390.38,285.79Z"/><path class="cls-8" d="M354,285.79H554.78a40.42,40.42,0,0,1,40.42,40.42V813.94a0,0,0,0,1,0,0H313.62a0,0,0,0,1,0,0V326.21A40.42,40.42,0,0,1,354,285.79Z"/></g><path class="cls-1" d="M406.59,401.4c43.38-.85,69.75-18.11,90.78-52.4a6.68,6.68,0,0,0-.12-7.19l-.83-1.26a6.68,6.68,0,0,0-10.9-.34c-20.13,26.64-36.57,44.47-79.61,47.85a6.68,6.68,0,0,0-5.42,9.69h0A6.7,6.7,0,0,0,406.59,401.4Z"/><path class="cls-1" d="M421.62,412.68l-33-14.7a1.45,1.45,0,0,1-.3-2.48l27.48-21.27a1.69,1.69,0,0,1,2.7,1.1c-1.18,13.42.71,25.27,5.13,35.82A1.45,1.45,0,0,1,421.62,412.68Z"/><path class="cls-4" d="M634.43,186.15c17.07,38.68,42.49,55.91,81.22,61.93a6.53,6.53,0,0,0,6.43-2.81l.81-1.22a6.51,6.51,0,0,0-3.79-9.93C687.59,226,665.38,218,646.17,180.53a6.51,6.51,0,0,0-10.74-1.24h0A6.53,6.53,0,0,0,634.43,186.15Z"/><path class="cls-4" d="M629.93,203.9l.84-35.18a1.41,1.41,0,0,1,2.11-1.2l29.45,16.72a1.65,1.65,0,0,1,0,2.84c-12.51,4-22.46,10.13-30.29,18.07A1.42,1.42,0,0,1,629.93,203.9Z"/><path class="cls-1" d="M1130.91,393.63c19.37,35.29,44.9,49.53,82.13,52.06a6.22,6.22,0,0,0,5.86-3.19l.67-1.23a6.2,6.2,0,0,0-4.41-9.11c-30.55-5.07-52.27-10.91-73.58-44.82a6.19,6.19,0,0,0-10.29-.29h0A6.21,6.21,0,0,0,1130.91,393.63Z"/><path class="cls-1" d="M1128.11,410.84,1126,377.41a1.35,1.35,0,0,1,1.91-1.31l29.3,13.43a1.56,1.56,0,0,1,.26,2.69,69,69,0,0,0-27.23,19.63A1.35,1.35,0,0,1,1128.11,410.84Z"/><path class="cls-1" d="M401.41,813.94H116.25V624.44A25.7,25.7,0,0,1,142,598.75H375.72a25.69,25.69,0,0,1,25.69,25.69Z"/><path class="cls-1" d="M358.7,813.94H73.54V624.44a25.69,25.69,0,0,1,25.69-25.69H333a25.7,25.7,0,0,1,25.7,25.69Z"/><g class="cls-2"><path class="cls-3" d="M401.41,813.94H116.25V624.44A25.7,25.7,0,0,1,142,598.75H375.72a25.69,25.69,0,0,1,25.69,25.69Z"/><path class="cls-4" d="M358.7,813.94H73.54V624.44a25.69,25.69,0,0,1,25.69-25.69H333a25.7,25.7,0,0,1,25.7,25.69Z"/></g><path class="cls-1" d="M1516.46,813.94H1229.38V555a25.7,25.7,0,0,1,25.7-25.69h235.69A25.69,25.69,0,0,1,1516.46,555Z"/><path class="cls-1" d="M1484.17,813.94H1197.09V555a25.69,25.69,0,0,1,25.69-25.69h235.69a25.7,25.7,0,0,1,25.7,25.69Z"/><g class="cls-2"><path class="cls-7" d="M1516.46,813.94H1229.38V555a25.7,25.7,0,0,1,25.7-25.69h235.69A25.69,25.69,0,0,1,1516.46,555Z"/><path class="cls-8" d="M1484.17,813.94H1197.09V555a25.69,25.69,0,0,1,25.69-25.69h235.69a25.7,25.7,0,0,1,25.7,25.69Z"/></g><path class="cls-9" d="M1140.94,80.6l159.52,6.91a16.55,16.55,0,0,1,15.83,16.4L1318,335.7a12.2,12.2,0,0,1-12.5,12.29l-183-4.6a11.59,11.59,0,0,1-11.28-12.08l10.09-232.77A18.77,18.77,0,0,1,1140.94,80.6Z"/><path class="cls-4" d="M1141.51,78.74c21.66,3.9,96.17,16.29,158.32,14.22a5,5,0,0,1,5.22,5l2.27,232.85a5.8,5.8,0,0,1-5.71,5.86c-26.11.41-133.65,1.72-171.74-3.95A4.59,4.59,0,0,1,1126,328l9.14-244.07A5.46,5.46,0,0,1,1141.51,78.74Z"/><path class="cls-1" d="M1143.59,84.87c20.84,3.75,92.55,15.67,152.35,13.68a4.86,4.86,0,0,1,5,4.8l2.19,224.07a5.57,5.57,0,0,1-5.5,5.64c-25.13.4-128.61,1.66-165.27-3.79a4.41,4.41,0,0,1-3.76-4.55l8.79-234.88A5.25,5.25,0,0,1,1143.59,84.87Z"/><g class="cls-10"><path class="cls-6" d="M1286.48,117.75c1.4.06,2.55-.61,2.57-1.5s-1.12-1.68-2.52-1.76l-56.15-3.44c-1.39-.08-2.24.83-1.87,2a3.67,3.67,0,0,0,3.21,2.3Z"/></g><g class="cls-10"><path class="cls-6" d="M1230,120c-1.4-.09-2.24.83-1.88,2a3.7,3.7,0,0,0,3.21,2.3l54.77,2.37c1.39.06,2.55-.62,2.56-1.5s-1.12-1.68-2.52-1.77Z"/></g><g class="cls-10"><path class="cls-6" d="M1229.6,129.05c-1.39-.08-2.24.83-1.87,2a3.67,3.67,0,0,0,3.21,2.3l54.76,2.37c1.4.06,2.55-.61,2.57-1.5s-1.12-1.68-2.52-1.76Z"/></g><g class="cls-10"><path class="cls-6" d="M1290.48,154.71c1.4.06,2.52-.61,2.5-1.5s-1.18-1.67-2.57-1.74L1157,144.63c-1.4-.07-1.87.8-1,1.93l.25.34a6,6,0,0,0,4,2.17Z"/></g><g class="cls-10"><path class="cls-6" d="M1156.62,153.57c-1.39-.08-1.86.79-1,1.92l.25.35a6,6,0,0,0,4,2.16l130.22,5.65c1.4.06,2.53-.62,2.51-1.51s-1.18-1.67-2.58-1.74Z"/></g><path class="cls-6" d="M1177.39,199.09h-.05l-18-.37a4.86,4.86,0,0,1-4.92-4.2L1153,179.43a3.33,3.33,0,0,1,.81-2.49,4,4,0,0,1,2.8-1.34h0c1.51-.09,3.6-.24,5.9-.41,5-.37,10.68-.8,14-.8h.08a5.06,5.06,0,0,1,5,3.61c.9,3.47.74,10,.49,17A4.48,4.48,0,0,1,1177.39,199.09Zm-20.67-22a2.53,2.53,0,0,0-1.77.84,1.85,1.85,0,0,0-.46,1.39l1.42,15.09a3.41,3.41,0,0,0,3.49,2.88l18,.37h0a3,3,0,0,0,3.21-2.68c.25-6.86.41-13.3-.44-16.59a3.63,3.63,0,0,0-3.62-2.5c-3.27,0-9.17.44-13.9.79-2.31.17-4.41.33-5.93.41Z"/><path class="cls-11" d="M1158.63,178.6c3.78-.22,12-1,15.89-1a3.48,3.48,0,0,1,3.45,2.44c.72,2.79.56,8.32.38,13.43a3,3,0,0,1-3.19,2.7l-14.36-.29a3.33,3.33,0,0,1-3.37-2.83L1156.3,181A2.33,2.33,0,0,1,1158.63,178.6Z"/><g class="cls-10"><path class="cls-6" d="M1194.4,183.66a1.81,1.81,0,0,0-1.92,2.37l1,4.08a3.47,3.47,0,0,0,3.16,2.49l88.34,1a2.5,2.5,0,0,0,2.52-2.52l0-1.62a2.7,2.7,0,0,0-2.57-2.63Z"/></g><path class="cls-12" d="M1159.37,181h0a2.76,2.76,0,0,1,3.8,1.08l3.47,6.39a.88.88,0,0,0,1.58-.05l9-19.48a1,1,0,0,1,1.87.45,38.66,38.66,0,0,1-11.54,26.76s-5.25-2.1-9.39-11.47A2.89,2.89,0,0,1,1159.37,181Z"/><path class="cls-6" d="M1177,237.6h0l-18-.37A4.87,4.87,0,0,1,1154,233l-1.41-15.09a3.29,3.29,0,0,1,.81-2.49,4,4,0,0,1,2.79-1.34h0c1.52-.09,3.61-.24,5.91-.41,5-.37,10.68-.79,14-.8h.07a5.06,5.06,0,0,1,5,3.61c.89,3.48.74,10,.49,17A4.49,4.49,0,0,1,1177,237.6Zm-20.67-22a2.53,2.53,0,0,0-1.77.84,1.85,1.85,0,0,0-.46,1.39l1.41,15.1a3.42,3.42,0,0,0,3.5,2.87l18,.37h0a3,3,0,0,0,3.21-2.67c.25-6.87.41-13.31-.44-16.59a3.65,3.65,0,0,0-3.62-2.51c-3.27,0-9.17.44-13.9.79-2.31.17-4.41.33-5.93.41Z"/><path class="cls-11" d="M1158.21,217.11c3.78-.22,12-1,15.88-1a3.48,3.48,0,0,1,3.46,2.45c.72,2.78.56,8.31.37,13.42a3,3,0,0,1-3.19,2.7l-14.35-.29a3.33,3.33,0,0,1-3.37-2.83l-1.13-12.06A2.33,2.33,0,0,1,1158.21,217.11Z"/><g class="cls-10"><path class="cls-6" d="M1194,222.17a1.81,1.81,0,0,0-1.92,2.38l1,4.07a3.47,3.47,0,0,0,3.16,2.49l88.34,1a2.47,2.47,0,0,0,2.51-2.51V228a2.69,2.69,0,0,0-2.57-2.63Z"/></g><path class="cls-12" d="M1159,219.48h0a2.75,2.75,0,0,1,3.79,1.08l3.48,6.39a.88.88,0,0,0,1.58,0l9-19.48a1,1,0,0,1,1.87.45,38.68,38.68,0,0,1-11.54,26.77s-5.25-2.11-9.39-11.48A2.9,2.9,0,0,1,1159,219.48Z"/><path class="cls-6" d="M1174.88,274.57h-.05l-18-.37a4.88,4.88,0,0,1-4.92-4.21l-1.42-15.09a3.37,3.37,0,0,1,.81-2.49,4,4,0,0,1,2.8-1.34h0c1.51-.08,3.6-.24,5.9-.41,4.76-.35,10.68-.79,14-.8a5.13,5.13,0,0,1,5,3.61c.9,3.48.74,10,.49,17A4.49,4.49,0,0,1,1174.88,274.57Zm-20.67-22a2.5,2.5,0,0,0-1.76.83,1.88,1.88,0,0,0-.47,1.39l1.42,15.1a3.41,3.41,0,0,0,3.49,2.87l18,.37a3.09,3.09,0,0,0,3.25-2.67c.25-6.87.4-13.31-.45-16.59a3.67,3.67,0,0,0-3.61-2.51c-3.28,0-9.18.44-13.91.79-2.31.17-4.41.33-5.93.42Z"/><path class="cls-11" d="M1156.13,254.07c3.77-.22,12-1,15.88-1a3.47,3.47,0,0,1,3.45,2.45c.72,2.78.56,8.32.38,13.42a3,3,0,0,1-3.19,2.7l-14.36-.29a3.33,3.33,0,0,1-3.37-2.83l-1.13-12.06A2.34,2.34,0,0,1,1156.13,254.07Z"/><g class="cls-10"><path class="cls-6" d="M1191.89,259.13a1.81,1.81,0,0,0-1.92,2.38l1,4.07a3.49,3.49,0,0,0,3.16,2.5l88.34,1a2.48,2.48,0,0,0,2.52-2.51l0-1.62a2.69,2.69,0,0,0-2.57-2.63Z"/></g><path class="cls-12" d="M1156.87,256.44h0a2.75,2.75,0,0,1,3.79,1.08l3.47,6.39a.88.88,0,0,0,1.58-.05l9-19.47a1,1,0,0,1,1.87.44,38.62,38.62,0,0,1-11.54,26.77s-5.24-2.11-9.39-11.48A2.89,2.89,0,0,1,1156.87,256.44Z"/><path class="cls-6" d="M1172.42,312.68h-.05l-18-.37a4.87,4.87,0,0,1-4.93-4.2l-1.42-15.1a3.32,3.32,0,0,1,.82-2.48,3.94,3.94,0,0,1,2.79-1.34h0c1.52-.09,3.61-.25,5.91-.42,5-.37,10.68-.79,14-.79a5.1,5.1,0,0,1,5,3.6c.9,3.48.75,10,.49,17A4.48,4.48,0,0,1,1172.42,312.68Zm-20.67-22a2.5,2.5,0,0,0-1.76.83,1.89,1.89,0,0,0-.47,1.4l1.42,15.09a3.4,3.4,0,0,0,3.5,2.87l18,.37h0a3,3,0,0,0,3.21-2.67c.25-6.87.4-13.3-.45-16.59a3.7,3.7,0,0,0-3.61-2.51c-3.28,0-9.17.44-13.91.8-2.3.17-4.4.32-5.93.41Z"/><path class="cls-11" d="M1153.67,292.18c3.78-.21,12-1,15.88-1a3.5,3.5,0,0,1,3.46,2.44c.72,2.79.56,8.32.37,13.43a3,3,0,0,1-3.19,2.7l-14.36-.3a3.3,3.3,0,0,1-3.36-2.82l-1.13-12.07A2.33,2.33,0,0,1,1153.67,292.18Z"/><g class="cls-10"><path class="cls-6" d="M1189.43,297.24a1.82,1.82,0,0,0-1.92,2.38l1,4.08a3.5,3.5,0,0,0,3.16,2.49l88.35,1a2.49,2.49,0,0,0,2.51-2.52l0-1.62a2.69,2.69,0,0,0-2.57-2.63Z"/></g><path class="cls-12" d="M1154.41,294.56h0a2.75,2.75,0,0,1,3.79,1.07l3.47,6.4a.89.89,0,0,0,1.59-.06l9-19.47a1,1,0,0,1,1.87.44,38.64,38.64,0,0,1-11.53,26.77s-5.25-2.11-9.4-11.47A2.89,2.89,0,0,1,1154.41,294.56Z"/><path class="cls-6" d="M1232,53c-5.58-4.26-10.6-4.4-14.17-3.51a7,7,0,0,0-5.32,7.18l.8,16.67,18,2.39S1242.92,61.3,1232,53Zm-8.54,13a4.52,4.52,0,1,1,4.71-4.32A4.52,4.52,0,0,1,1223.42,66Z"/><path class="cls-6" d="M1188.11,83l.36-8.35a5.1,5.1,0,0,1,5.49-4.86l57.46,4.46a5,5,0,0,1,4.57,4.87l.14,8Z"/><path class="cls-6" d="M1170.21,79.11l100.63,4.36A7.45,7.45,0,0,1,1277.9,90l.07.49a6.4,6.4,0,0,1-6.62,7.21L1168.1,93.18a4.16,4.16,0,0,1-4-4.53l.43-4.61A5.43,5.43,0,0,1,1170.21,79.11Z"/><path class="cls-6" d="M1155.82,158.71l-146,26a10.68,10.68,0,0,0-8.47,13.19l.26,1a9.92,9.92,0,0,0,12.16,7.09l144.11-38.36Z"/><ellipse class="cls-13" cx="1224.2" cy="139.68" rx="67.57" ry="68.81" transform="translate(875.79 1321.54) rotate(-80.08)"/><path class="cls-6" d="M1237.15,65.62c-41.66-7.29-81.23,20-88.38,60.88s20.82,80,62.48,87.25,81.22-20,88.37-60.88S1278.8,72.9,1237.15,65.62Zm-24,137.25c-35.54-6.21-59.4-39.54-53.3-74.44s39.86-58.15,75.39-51.93,59.41,39.54,53.3,74.43S1248.69,209.08,1213.15,202.87Z"/><path class="cls-14" d="M1073.29,242.36l-15.52,3.88,3.88,29.11s-5.82,5.82-7.76,13.58-3.73,40.36-3.73,40.36l-3.69,2.23-.44,1.86,10.71,14.41L1055,336.32c-.29-1.82.2-5.52,0-5.59,5.82-15.53,18.27-59.26,18.27-59.26Z"/><path class="cls-14" d="M1077.83,333.58h-.5c.75-9.36,4.18-50.55,7.61-66,3.88-17.47-5.82-52.4-5.82-52.4l-17.47,17.47,9.7,33c-6.65,10,1.09,68.38.92,68.36v.13l-2.53,3.48.31,1.89,15.47,9.12-6.09-9.88A11.08,11.08,0,0,1,1077.83,333.58Z"/><path class="cls-14" d="M1058.19,137.73s-34,47.19,0,71.38l3.46-3.09s-16.88-19.9,0-44.27Z"/><path class="cls-15" d="M1086.54,350.06h-4.93a3,3,0,0,1-2.36-1.15c-1.54-2-4.73-5.9-6.25-6-2-.14-1.79,7.15-1.79,7.15h-1.15L1068.6,341a5.36,5.36,0,0,1,2.82-5.61h0s.47,3.47,3,5,10.35,7,10.35,7a7.22,7.22,0,0,1,2,.06A1.3,1.3,0,0,1,1086.54,350.06Z"/><path class="cls-15" d="M1057.13,349.5l-4.55-1.91a3,3,0,0,1-1.73-2c-.64-2.44-2.07-7.27-3.43-8-1.84-.92-4.43,5.91-4.43,5.91l-1.06-.45,2.17-8.92a5.37,5.37,0,0,1,4.77-4.08h0s-.91,3.38.84,5.78,6.82,10.49,6.82,10.49a7.15,7.15,0,0,1,1.82.83A1.3,1.3,0,0,1,1057.13,349.5Z"/><path class="cls-6" d="M1083.56,185.66s-.57,3.5.27,13.11,4.83,32.2,4,53.8c0,0-11.36,2.65-31.11,1.39,0,0-8.33-33.72-6.3-46.55s13-22,13-22Z"/><polygon class="cls-14" points="1075.17 121.4 1076.56 137.73 1063.36 137.73 1066.64 112.8 1075.17 121.4"/><path class="cls-15" d="M1059.45,135.47c4.56-.25,14.74-.71,22-.32a8.39,8.39,0,0,1,7.76,6.65l1.76,8.43a20.43,20.43,0,0,1-.29,9.49l-7.07,25.94s-6.28,3.78-20.08-.27c0,0-12.12-28.89-7.16-47.37A3.44,3.44,0,0,1,1059.45,135.47Z"/><path class="cls-14" d="M1088.81,140.29c2,5.12,3.7,10.49,5.59,15.52,1,2.51,1.93,5,3,7.25.53,1.13,1.1,2.16,1.63,3.1a14.19,14.19,0,0,0,1.44,2.06c.07.06-.14.1-.21.1l1.73.29h1.63a57.53,57.53,0,0,0,7.61-1c5.33-1,10.88-2.39,16.57-3.45h0a2,2,0,0,1,1.69,3.48,58.8,58.8,0,0,1-7.26,5.3q-1.9,1.17-3.87,2.27c-1.34.68-2.69,1.37-4.09,2a48.09,48.09,0,0,1-9,3.08c-.88.14-1.75.3-2.66.42s-1.93.12-3,.06c-.59-.06-1.18-.13-1.77-.22a7.78,7.78,0,0,1-.92-.16c-.41-.12-.81-.26-1.21-.41a12.94,12.94,0,0,1-2-1c-.56-.37-1.07-.76-1.57-1.16a21,21,0,0,1-4-4.58,36.29,36.29,0,0,1-2.5-4.43,59.61,59.61,0,0,1-3.44-8.69,80.78,80.78,0,0,1-3.59-17.6,5.28,5.28,0,0,1,10.2-2.34Z"/><path class="cls-14" d="M1126,166.72l2.36-5.59,12.39-3.09s1,2.15-4.22,3.09a4.54,4.54,0,0,1,.87,4.47C1136.39,168,1125.86,170.44,1126,166.72Z"/><path class="cls-14" d="M1080.75,102.54c.48.28,4.19,13.37,1.08,18.86s-12.61-.66-15.19-8.6S1068.2,95.14,1080.75,102.54Z"/><path class="cls-12" d="M1056.13,112.8c-2.13,10.44-9.19,7.59-14.19,12.23-8.1,7.53-19.69-.23-31,6.9-8.13,5.15-12.05,18.33-8.15,29,5.41,14.74,23.89,20.79,33.47,16.31,9.15-4.29,7.85-17.14,20.17-22.1,5.22-2.11,7.81-.74,10.94-3.86,5.48-5.47,4-16.08,3.43-20.17-1.24-8.87-4.21-10.47-2.79-14.37,2.76-7.58,15.66-6,16.73-11.37,1-4.88-8.36-14.12-17.16-12.66C1054,94.92,1057.08,108.15,1056.13,112.8Z"/><rect class="cls-16" x="1361.93" y="447.22" width="7.49" height="81"/><path class="cls-16" d="M1332.87,529.78h65.61a4.88,4.88,0,0,0-4.88-4.87h-55.85a4.87,4.87,0,0,0-4.88,4.87Z"/><rect class="cls-16" x="1320.46" y="427.93" width="87.66" height="24.86" rx="8.56"/><path class="cls-17" d="M1396.78,503.37s18.77,13.53,15.51,22.63c0,0-20.54-8.87-23-15.85s.42-10.07.42-10.07Z"/><path class="cls-14" d="M1394,492l-3.07,8.87a3.1,3.1,0,0,0,1.2,3.63,8.19,8.19,0,0,0,2.54,1,3.59,3.59,0,0,0,4-1.81l3.67-6.91Z"/><path class="cls-7" d="M1364.08,412.14s38.56,6.68,55.1,22-15.18,64-15.18,64-5.2,0-11.5-5.44c0,0,18.81-36.66,2.6-47.35-18.23-12-39.23-14.73-39.23-14.73l7.83-17.3Z"/><path class="cls-12" d="M1409,521c-4.13-1.91-15.82-10.1-17.79-10.46s-5.39,2-5.39,2a5.34,5.34,0,0,0,.05,4.1c2.75,3.32,8.84,9.65,17,12,6,1.73,10.24.12,12.87-1.78A17.49,17.49,0,0,0,1409,521Z"/><path class="cls-17" d="M1402.93,528.58c-8.19-2.36-14.28-8.69-17-12,.61,1.76,2,4,4.95,6.7,7.35,6.6,21.37,9,24.36,8.52,2.39-.37,2.17-2.58.59-5C1413.17,528.7,1409,530.31,1402.93,528.58Z"/><path class="cls-14" d="M1382.35,506.69c0,1.14,2.37,5,3.73,7.23a3.52,3.52,0,0,0,3,1.68,9.34,9.34,0,0,0,2.48-.3,2.29,2.29,0,0,0,1.54-2.86l-2.65-9.07Z"/><path class="cls-8" d="M1327,400.56s-8.56,22.9,0,29.87,29,14.8,33.56,28.68,12.31,40.83,22.68,50.37c0,0,7.28-.7,10-3.6,0,0-5.91-40.25-9.8-50.58-3.37-8.94-8.34-21.85-17.86-29.06-2.73-2.07-2.25-5.34-1-8.51l2.3-5.79Z"/><path class="cls-17" d="M1416.28,382.61c-14.36.87-9.89-22.07-9.63-23L1384.86,375s1.15,12.27,19.27,18.7a22.57,22.57,0,0,0,12.48.91A19.81,19.81,0,0,1,1416.28,382.61Z"/><path class="cls-14" d="M1444.05,375.71c-5.35-3.73-11.42,0-11.42,0-7.15,4.68-12.45,6.67-16.35,6.9a19.81,19.81,0,0,0,.33,12c8-1.73,13.75-7.53,16.24-10.5a2.6,2.6,0,0,1,3.59-.4c1.11.88,2.19,2.09,2,3.36-.39,2.5,2.51,3.29,2.73,2.39s-1-6.29-1-6.29,5.8,5.84,8.07,8.08,5.11,0,5.11,0S1449.4,379.43,1444.05,375.71Z"/><path class="cls-12" d="M1349.32,324.19s20.89-8.36,59.77,23.74c0,0,3.25,6.72-.29,12.7s-37.31,35.14-42,51.31c0,0-20.11,6.53-40.91-9C1325.94,403,1327.78,358,1349.32,324.19Z"/><path class="cls-14" d="M1390.62,316.73l-10.29,12.46a4.12,4.12,0,0,0-.54,4.41c1.43,2.91,4.82,7.15,12.33,6.56a6.3,6.3,0,0,0,5.19-3.54l7.19-14.87Z"/><path class="cls-12" d="M1333.14,377.59c-2.42-9.88,22.14-31.9,22.14-31.9l-6-21.5s-53,35.32-39.53,63.72a20.74,20.74,0,0,0,7.49,8.83C1321.55,385.24,1328.36,380,1333.14,377.59Z"/><path class="cls-17" d="M1333.12,376.15a.57.57,0,0,1-.56-.44c-2.48-10.1,21.31-31.56,22.32-32.47a.58.58,0,1,1,.77.87c-.24.21-24.28,21.9-22,31.32a.6.6,0,0,1-.43.71Z"/><path class="cls-14" d="M1370.35,376.74s-29.13,11.31-36.24,2.8a4.78,4.78,0,0,1-1-2c-4.78,2.37-11.59,7.65-15.86,19.15,15.32,9.78,41.51-5.45,48.59-9.94a5.27,5.27,0,0,1,3.91-.72c2.73.57,7.45,1.4,10,1,3.72-.58,9.07,12.55,15.1,8.5C1394.87,395.59,1389.71,372.77,1370.35,376.74Z"/><path class="cls-14" d="M1413,298.41c.07.29-1.44,18.11-2.27,27.81a5,5,0,0,1-2.17,3.72,5,5,0,0,1-4.26.68l-6.46-1.89a9.73,9.73,0,0,1-5.4-4c-.62-.94-1.23-1.89-1.93-3l3.09-23.62S1411.27,291.7,1413,298.41Z"/><path class="cls-18" d="M1411.72,285.79a5.78,5.78,0,0,0-6.31,4,1.9,1.9,0,0,1-2.59,1.11,1.54,1.54,0,0,0-1.74.13,1.93,1.93,0,0,1-2.48,0c-1.76-1.52-4.91-3.28-8.63-1.1s-3,5.24-2,7.21a1.93,1.93,0,0,1-1,2.62c-4.79,2.16-3.42,6-2.55,7.63a1.89,1.89,0,0,0,1.17.95c1.53.43,5.09,1.71,5.71,4.43.06.23.11.54.17.87a26,26,0,0,1,6-1l.21-9.13a1.88,1.88,0,0,1,.75-1.48c1.46-1.12,4.87-3.29,7.84-1.9,3.9,1.82,11.38,2.7,12.69-1.91S1418.64,286.2,1411.72,285.79Z"/><path class="cls-14" d="M1391.25,317.84s1.93-8.13-1.15-9.73-7.21-.14-5.66,5.42C1386.38,320.45,1391.25,317.84,1391.25,317.84Z"/><path class="cls-19" d="M1385.27,399h.14l61.12-.06a2.74,2.74,0,1,0,0-5.47l-61.11.06a2.74,2.74,0,0,0-.14,5.47Z"/><path class="cls-19" d="M1501.46,343.55h-50.89a9.69,9.69,0,0,0-8.77,5.57L1418.27,399h63.25a5.89,5.89,0,0,0,5.48-3.73l18.24-46.17A4.06,4.06,0,0,0,1501.46,343.55Z"/><path class="cls-1" d="M1465.61,369.14c-1.11,3.42-.29,6.75,1.82,7.43s4.71-1.55,5.81-5,.29-6.75-1.82-7.43S1466.71,365.71,1465.61,369.14Z"/><path class="cls-9" d="M1493.21,530.12a2.62,2.62,0,0,0,1-.21,2.45,2.45,0,0,0,1.34-3.26l-53.86-121.22a2.6,2.6,0,0,0-3.37-1.3,2.45,2.45,0,0,0-1.35,3.27l53.86,121.21A2.59,2.59,0,0,0,1493.21,530.12Z"/><path class="cls-9" d="M1432.54,530.12a2.59,2.59,0,0,0,2.36-1.51l53.86-121.21a2.45,2.45,0,0,0-1.35-3.27,2.6,2.6,0,0,0-3.37,1.3l-53.86,121.22a2.45,2.45,0,0,0,1.34,3.26A2.62,2.62,0,0,0,1432.54,530.12Z"/><path class="cls-9" d="M1326.49,530.12a2.62,2.62,0,0,0,1-.21,2.45,2.45,0,0,0,1.34-3.26L1275,405.43a2.6,2.6,0,0,0-3.37-1.3,2.46,2.46,0,0,0-1.35,3.27l53.86,121.21A2.59,2.59,0,0,0,1326.49,530.12Z"/><path class="cls-9" d="M1265.82,530.12a2.59,2.59,0,0,0,2.36-1.51L1322,407.4a2.45,2.45,0,0,0-1.35-3.27,2.6,2.6,0,0,0-3.37,1.3l-53.86,121.22a2.45,2.45,0,0,0,1.35,3.26A2.58,2.58,0,0,0,1265.82,530.12Z"/><path class="cls-9" d="M1259.5,401.69a2.93,2.93,0,0,1,.51-2.24,2.33,2.33,0,0,1,1.87-1h245a2.72,2.72,0,0,1,2.35,1.44,3.45,3.45,0,0,1,.18,3l-2.65,6.44a3.72,3.72,0,0,1-3.38,2.41H1263.56a2.91,2.91,0,0,1-2.76-2.55Z"/><path class="cls-8" d="M695.78,32.79,516.24,32a3.08,3.08,0,0,0-3.11,3.09l.39,62.85a3.08,3.08,0,0,0,3.16,3.06c15.83-.47,178.1-2.56,181.2-2.43s1.4-49.5,1-62.82A3.07,3.07,0,0,0,695.78,32.79Z"/><path class="cls-1" d="M516.61,98.59a.68.68,0,0,1-.69-.66l-.38-62.85a.67.67,0,0,1,.2-.48.67.67,0,0,1,.47-.19l179.55.78a.66.66,0,0,1,.66.65c1.14,33.08,1.16,53.86.06,60.07l-.05.26h-.26l-25.95.33c-46.57.58-143.47,1.79-153.61,2.09Zm-.05-.67,0,0c10.12-.3,107-1.51,153.63-2.1l25.67-.32c1.05-6.48,1-27.09-.1-59.68L516.21,35l.35,62.88Z"/><path class="cls-19" d="M688.1,49h0c0,1.7-.57,3.08-1.27,3.08H618.06c-.7,0-1.27-1.38-1.27-3.08h0c0-1.69.57-3.07,1.27-3.07h68.77C687.53,45.94,688.1,47.32,688.1,49Z"/><path class="cls-19" d="M688.1,59.5h0c0,1.7-.57,3.08-1.27,3.08H618.06c-.7,0-1.27-1.38-1.27-3.08h0c0-1.69.57-3.07,1.27-3.07h68.77C687.53,56.43,688.1,57.81,688.1,59.5Z"/><path class="cls-19" d="M688.1,70h0c0,1.7-.57,3.08-1.27,3.08H618.06c-.7,0-1.27-1.38-1.27-3.08h0c0-1.69.57-3.07,1.27-3.07h68.77C687.53,66.92,688.1,68.3,688.1,70Z"/><path class="cls-19" d="M688.1,80.48h0c0,1.7-.57,3.08-1.27,3.08H618.06c-.7,0-1.27-1.38-1.27-3.08h0c0-1.69.57-3.07,1.27-3.07h68.77C687.53,77.41,688.1,78.79,688.1,80.48Z"/><circle class="cls-4" cx="599.37" cy="51.18" r="11.96"/><circle class="cls-4" cx="569.64" cy="51.18" r="11.96"/><circle class="cls-4" cx="539.9" cy="51.57" r="11.96"/><path class="cls-8" d="M592.26,48.65a7.68,7.68,0,1,0,7.11-4.76H599V42h.39a9.61,9.61,0,1,1-8.9,5.94Z"/><path class="cls-8" d="M565.67,58.08a7.69,7.69,0,1,0,4.1-14.19h-.39V42h.39a9.64,9.64,0,1,1-5.06,17.83Z"/><path class="cls-8" d="M533.49,55.89a7.68,7.68,0,1,0,6.36-12h-.39V42h.39A9.64,9.64,0,1,1,531.91,57Z"/><path class="cls-4" d="M589.62,68.21h19.49a2.22,2.22,0,1,1,0,4.43H589.62a2.22,2.22,0,1,1,0-4.43Z"/><path class="cls-4" d="M559.89,68.21h19.49a2.22,2.22,0,1,1,0,4.43H559.89a2.22,2.22,0,1,1,0-4.43Z"/><path class="cls-4" d="M549.65,72.64H530.16a2.22,2.22,0,1,1,0-4.43h19.49a2.22,2.22,0,1,1,0,4.43Z"/><rect class="cls-4" x="587.4" y="75.11" width="23.93" height="17.48" rx="2.22"/><rect class="cls-4" x="557.67" y="75.11" width="23.93" height="17.48" rx="2.22"/><rect class="cls-4" x="527.94" y="75.11" width="23.93" height="17.48" rx="2.22"/><rect class="cls-6" x="420.71" y="226.69" width="5.31" height="57.4"/><path class="cls-6" d="M400.12,285.19h46.49v-1.34a2.1,2.1,0,0,0-2.11-2.11H402.24a2.11,2.11,0,0,0-2.12,2.11Z"/><rect class="cls-6" x="393.22" y="213.82" width="58.45" height="16.58" rx="5.71"/><path class="cls-14" d="M462.55,188.41a46.38,46.38,0,0,1,16.76,7.15,4.44,4.44,0,0,1,1.95,4.23c-1.06,8.41-5.43,35.63-19.83,62.22a6.79,6.79,0,0,0-.64,4.6l2.5,11.63,4.64,4.35H456l-8-21.52,3.4-1.08a6.44,6.44,0,0,0,4.5-6l.39-23.1a26.24,26.24,0,0,1,6.31-17.38l-19.08-.93Z"/><path class="cls-12" d="M472.6,284.69c1.08,1.43-11.71,3.31-18.18.19,0,0-9-15.59-9-23.62,0,0,.71-1.64,6-1.27,0,0,3,18.47,6.19,20.54s8.89.2,8.89.2S471,282.59,472.6,284.69Z"/><path class="cls-14" d="M446,213.82c.1-.17,20.54-2.45,20.54-2.45a47.23,47.23,0,0,0,1.42,14.77c2.09,8.55,32.1,45.62,32.1,45.62l-3.14,10a50.65,50.65,0,0,0,28.72,1.73L506.1,271.76s-18.25-62.2-29.43-73.29l-20.49-7.09Z"/><path class="cls-8" d="M400.12,177.63s-11.77,17.52-12.74,25.51,3.23,11.24,15.58,11.77,45.35.53,45.35.53l28.16-24.06S456,184.06,450.61,182,400.12,177.63,400.12,177.63Z"/><path class="cls-12" d="M498.08,278.38s-3.39,3.28-1.1,6.93c0,0,26.84,4.76,34.12,2.6,0,0-1.51-3.45-9.72-7.38l.61.46a1,1,0,0,1-.65,1.76C515.94,282.44,504.75,281.45,498.08,278.38Z"/><path class="cls-12" d="M432,175.31s13.72-13.06,20.47-21.7a18.36,18.36,0,0,0,3.11-16.52c-3.08-10.39-8.56-21.14-9.06-22.81-.77-2.57-16.14-2.46-16.14-2.46s-30.27,19.64-42.15,52.9l13.35,4.16s7.9-13.25,15.71-21.68c0,0-13.51,17.84-14,25.15Z"/><path class="cls-14" d="M448.35,99.94c-.16.53-4.18,13.84-4.49,14.11s-8.8.73-12.8-2l6.78-14.19Z"/><path class="cls-14" d="M441.76,72s7.24,3.06,12.17,13.53,1.25,15.3-3.38,16-11.53.56-18.84-6.2S432.34,68.36,441.76,72Z"/><path class="cls-18" d="M436.62,89.7s-5.46-15.32,8.12-15.5l3.2,2.23s5-8.49-3.2-12.55a17.39,17.39,0,0,0-23.86,10.58c-3.48,11-1.45,18.13,4.34,23.4s8.18-.7,8.18-.7-3.15-4.93-1.87-7.57,4.25.55,4.25.55Z"/><path class="cls-14" d="M435.1,91.4s-2.76-7.89-6.45-4.75,3,7.29,5.61,8.64Z"/><path class="cls-14" d="M459.91,176.28l-10.07-9.71-13.94,5.89s-13.88,2.15-21.82,0l-7.94-2.15-17.94-5.59-2.82,8a4.79,4.79,0,0,0,1.75,5.51,32,32,0,0,0,4.53,2.82c2.36,1,58.26-.71,58.26-.71Z"/><path class="cls-18" d="M421.94,76.18A3.11,3.11,0,0,0,420.09,71c-8-1.24-20.11,0-25.2,17.07-5.75,19.2-9.49,28.8-13.32,30.48a3.13,3.13,0,0,0-.17,5.74c1.85.83,4.51,1.12,8.31.29C419.05,118.12,411.7,86.65,421.94,76.18Z"/><path class="cls-19" d="M421.78,180.86h.14l58.45-.07a2.62,2.62,0,1,0,0-5.23l-58.45.06a2.62,2.62,0,0,0-.13,5.23Z"/><path class="cls-19" d="M532.91,127.79H484.23a9.27,9.27,0,0,0-8.39,5.32l-22.5,47.72h60.49a5.63,5.63,0,0,0,5.25-3.57l17.45-44.15A3.89,3.89,0,0,0,532.91,127.79Z"/><path class="cls-1" d="M498.62,152.26c-1.06,3.28-.28,6.46,1.74,7.11s4.5-1.48,5.56-4.76.28-6.46-1.74-7.11S499.67,149,498.62,152.26Z"/><path class="cls-9" d="M340.09,183a2.17,2.17,0,0,1,.5-1.87,2.48,2.48,0,0,1,1.86-.82H586.37a2.82,2.82,0,0,1,2.34,1.2,2.45,2.45,0,0,1,.18,2.49l-2.64,5.36a3.73,3.73,0,0,1-3.36,2H344.13a2.76,2.76,0,0,1-2.75-2.13Z"/><path class="cls-9" d="M572.7,296a2.08,2.08,0,0,0,.84-.18,2.2,2.2,0,0,0,1.12-2.88L529.77,186.19A2.12,2.12,0,0,0,527,185a2.21,2.21,0,0,0-1.12,2.88l44.89,106.77A2.15,2.15,0,0,0,572.7,296Z"/><path class="cls-9" d="M522.13,296a2.14,2.14,0,0,0,2-1.33L569,187.92a2.21,2.21,0,0,0-1.12-2.88,2.12,2.12,0,0,0-2.81,1.15L520.16,293a2.2,2.2,0,0,0,1.12,2.88A2.13,2.13,0,0,0,522.13,296Z"/><path class="cls-9" d="M395.92,296a2.08,2.08,0,0,0,.84-.18,2.2,2.2,0,0,0,1.12-2.88L353,186.19a2.12,2.12,0,0,0-2.81-1.15,2.21,2.21,0,0,0-1.12,2.88L394,294.69A2.15,2.15,0,0,0,395.92,296Z"/><path class="cls-9" d="M345.34,296a2.15,2.15,0,0,0,2-1.33L392.2,187.92a2.21,2.21,0,0,0-1.12-2.88,2.12,2.12,0,0,0-2.81,1.15L343.38,293a2.2,2.2,0,0,0,1.12,2.88A2.12,2.12,0,0,0,345.34,296Z"/><path class="cls-6" d="M322.85,601.52l.59,0a5.08,5.08,0,0,0,4.47-5.63L296,318.21a5.08,5.08,0,1,0-10.1,1.16L317.81,597A5.08,5.08,0,0,0,322.85,601.52Z"/><path class="cls-6" d="M147.47,601.52a5.09,5.09,0,0,0,4.95-4L214.67,319.9a5.08,5.08,0,1,0-9.92-2.22L142.5,595.32a5.1,5.1,0,0,0,3.85,6.08A5.33,5.33,0,0,0,147.47,601.52Z"/><path class="cls-6" d="M252.6,601.52a5.09,5.09,0,0,0,5.08-5.08v-137a5.09,5.09,0,0,0-10.17,0v137A5.09,5.09,0,0,0,252.6,601.52Z"/><path class="cls-6" d="M354.32,287.73,336.45,512.81a9,9,0,0,1-9.19,8.28l-186.64-4.55a9,9,0,0,1-8.66-10.4L167.69,281.7a9,9,0,0,1,9.09-7.58L345.56,278A9,9,0,0,1,354.32,287.73Z"/><path class="cls-1" d="M338.69,284.22,182.18,280.6a9,9,0,0,0-9.09,7.58L139.37,500A9,9,0,0,0,148,510.37l173.37,4.22a9,9,0,0,0,9.19-8.28l16.86-212.39A9,9,0,0,0,338.69,284.22Z"/><path class="cls-4" d="M254.23,305.88l78.88,4.4a1.44,1.44,0,0,1,1.35,1.56l-.1,1.27a1.44,1.44,0,0,1-1.54,1.3l-78.77-5.66a1.44,1.44,0,0,1-1.33-1.56h0A1.43,1.43,0,0,1,254.23,305.88Z"/><rect class="cls-4" x="291.19" y="276.64" width="3.41" height="81.84" rx="1.44" transform="matrix(0.09, -1, 1, 0.09, -48.54, 582.24)"/><path class="cls-4" d="M275.43,322.89l0,.24a1.43,1.43,0,0,0,1.31,1.55l54.8,4.71a1.43,1.43,0,0,0,1.55-1.31l.1-1.11a1.45,1.45,0,0,0-1.33-1.56L277,321.58A1.44,1.44,0,0,0,275.43,322.89Z"/><path class="cls-15" d="M201.56,600.33a2.15,2.15,0,0,0,0-.43c-2.11-8.35-12.56-13.55-12.56-13.55l-4.15.33c-2.38,7.36-2.07,11.87-1.69,13.88,0,.06,0,.11,0,.17A99.21,99.21,0,0,0,201.56,600.33Z"/><path class="cls-8" d="M183.16,600.73a1.79,1.79,0,0,0,1.32,1.32c4.86,1,12.59.2,15.83-.22a1.5,1.5,0,0,0,1.25-1.5A99.21,99.21,0,0,1,183.16,600.73Z"/><path class="cls-4" d="M243.54,331.19l27.29-9.91,2.1,4.41-26.23,9.88A3.6,3.6,0,0,1,243.54,331.19Z"/><path class="cls-20" d="M270.83,321.28c-.8,2.44,2.1,4.41,2.1,4.41l4.95-3.5a10,10,0,0,1-.52-1.93Z"/><path class="cls-21" d="M277.36,320.26a10,10,0,0,0,.52,1.93l3.66-2.59Z"/><path class="cls-14" d="M166.76,452.5a39,39,0,0,1-9,6.57,74.81,74.81,0,0,0,16.41,14.59l2,4.55,6.5-7.79S171.05,464.61,166.76,452.5Z"/><path class="cls-14" d="M183.15,580.51,184.9,589a1.39,1.39,0,0,0,1.18,1.14,11.4,11.4,0,0,0,2.72,0,1.74,1.74,0,0,0,1.38-2l-1.22-7.5Z"/><path class="cls-8" d="M219.5,600.64c-4.57-.13-6.94-.67-8.16-1.16,0,.45,0,.91,0,1.39a.91.91,0,0,0,.86.92l25.12-.16a1.15,1.15,0,0,0,.93-1.67C235,600.23,226.57,600.84,219.5,600.64Z"/><path class="cls-15" d="M238.26,600a1.14,1.14,0,0,0-.1-.19c-2.22-3.1-7.87-9.27-19-11.95l-5.35-.17s-2.39,4.15-2.43,11.83c1.22.49,3.59,1,8.16,1.16C226.57,600.84,235,600.23,238.26,600Z"/><path class="cls-14" d="M212.77,579.53c.06.4.8,6.47,1.08,8.82a1.18,1.18,0,0,0,1,1.06,12.75,12.75,0,0,0,3.68-.06,1.58,1.58,0,0,0,1.2-1.59v-9.53Z"/><path class="cls-8" d="M208.48,468.79s12.92,49.1,12.68,110.88a2.38,2.38,0,0,1-1.9,2.33,27.63,27.63,0,0,1-6,.7,2.22,2.22,0,0,1-2.12-1.86C209.35,570.22,199,510.38,193,500.66c0,0-3.9,53.3-2.65,80.95a1.32,1.32,0,0,1-1.16,1.37,21.66,21.66,0,0,1-4.8,0,1.75,1.75,0,0,1-1.57-1.49c-1.29-9-8.71-62.5-8.4-101.05,0-2.17,5.75-11.63,5.75-11.63Z"/><path class="cls-15" d="M250.72,363.07c-5.67,10.55-15.08,21.32-30.4,24.21-14.14,2.66-39.53,6-49.73,7.24a12.51,12.51,0,0,0-7.9,4.24c-8,9.29-25.62,34.7-4.91,60.31a39,39,0,0,0,9-6.57c-2.29-6.46-2.48-14.71,2.32-24.84a24.47,24.47,0,0,0,.62,2.38,147.54,147.54,0,0,1,7,42.45,1.3,1.3,0,0,0,.83,1.24c8.71,3.49,25.48,1.41,31.11.57a1.89,1.89,0,0,0,1.59-2.14c-2.77-20,11.42-53,15.16-61.2a5.42,5.42,0,0,1,2.72-2.72c21.42-9.69,30.73-24.61,34.51-38.05C259.31,365.81,254.25,363.89,250.72,363.07Z"/><path class="cls-14" d="M262.58,370.19a65.07,65.07,0,0,0,1-30.4h-4.88a78.72,78.72,0,0,1-8,23.28C254.25,363.89,259.31,365.81,262.58,370.19Z"/><path class="cls-14" d="M260.43,342.39s-7.43-9.62-5-14.63,10.69-4.53,10.69-4.53l1.16,3.93a5,5,0,0,1-.12,3.15l-4.57,12.08Z"/><path class="cls-14" d="M185.65,375.26,184,392.42s9.65,2.91,16.67-2.05l-4.94-15.59Z"/><path class="cls-14" d="M196.84,355.71c.24.22,9.81,19,9.81,19L195.8,380l-11.72-16.47S193,352.05,196.84,355.71Z"/><path class="cls-22" d="M188.88,364a1.77,1.77,0,0,0,.13,1.52l5.41,9a1.52,1.52,0,0,0,.3.37c.64.6,2.85,2.34,4.55,0,1.45-2,2.81-3.87,4.27-4.62a1.73,1.73,0,0,1,2.34.76,64.26,64.26,0,0,1,3.7,8.79,1.73,1.73,0,0,1-1,2.11,48,48,0,0,1-10.39,3,1.75,1.75,0,0,1-1.64-.69c-1.65-2.27-6.33-8.62-7.92-10.21s-4.22-.92-5.45-.56a1.72,1.72,0,0,1-1.38-.19c-1.25-.75-3.43-2.62-1.44-5.8a1.72,1.72,0,0,0-.53-2.35,3.83,3.83,0,0,1-1.47-5.43,5.4,5.4,0,0,1,5.85-2.86,1.81,1.81,0,0,0,1.88-1.05,1.14,1.14,0,0,1,.89-.7,1.67,1.67,0,0,0,1.36-2,4.44,4.44,0,0,1,2.48-5.07c4.68-2.58,8.78,1.62,9.82,5.16s-4.19,6-7.48,6.46C190.74,359.93,189.42,362.57,188.88,364Z"/><path class="cls-14" d="M190.66,377.31s-2.08-6.09-4.74-5.86-4.77,2.87-1.46,5.86C188.56,381,190.66,377.31,190.66,377.31Z"/><path class="cls-23" d="M168.2,426.09c-3.51-9.61-2.23-21.21-2.22-21.33l1,.11c0,.12-1.26,11.5,2.17,20.89Z"/><path class="cls-8" d="M815.66,266h-.06a7.22,7.22,0,0,0-7.19,6.76q-.42,6.53-.69,13.05a7,7,0,0,0,7,7.25h.08A133,133,0,1,1,706,349.54c-7.55-4.55-14.93-9.41-22.69-13.69A160.33,160.33,0,1,0,815.66,266Z"/><path class="cls-8" d="M660.69,335c10.89-4.45,44-16.52,50.38-18.83a.83.83,0,0,1,1.11.74L715,373.36a7.41,7.41,0,0,1-2.77,6.14l-12.87,10.29a.82.82,0,0,1-1.32-.45l-9.9-39.86a.84.84,0,0,0-1.15-.56l-30.37,13.53a3.08,3.08,0,0,1-4.16-3.78l7.72-23.17A.85.85,0,0,1,660.69,335Z"/><ellipse class="cls-24" cx="505.5" cy="876" rx="149.5" ry="21"/><ellipse class="cls-24" cx="1161" cy="894" rx="179" ry="18"/><path class="cls-4" d="M887.18,211.38c19.22-31.5,43.2-43.48,77.39-44.23a5.68,5.68,0,0,1,5.24,3.17l.57,1.15a5.68,5.68,0,0,1-4.42,8.15c-28.2,3.37-48.34,7.81-69.27,38a5.67,5.67,0,0,1-9.43-.17h0A5.68,5.68,0,0,1,887.18,211.38Z"/><path class="cls-4" d="M885.34,195.5,882,226a1.23,1.23,0,0,0,1.69,1.28l27.4-11.07a1.43,1.43,0,0,0,.35-2.45,63.26,63.26,0,0,1-24.12-19.12A1.23,1.23,0,0,0,885.34,195.5Z"/><rect class="cls-12" x="520.32" y="789.47" width="6.77" height="73.19"/><path class="cls-12" d="M553.34,864.07H494.07v-2.42a2,2,0,0,1,2-2H551.2a2.14,2.14,0,0,1,2.14,2.15Z"/><rect class="cls-12" x="485.35" y="772.04" width="79.2" height="22.46" rx="7.73"/><path class="cls-25" d="M486,849.69S466.69,863.62,470,873c0,0,21.15-9.12,23.7-16.31s-.43-10.36-.43-10.36Z"/><path class="cls-14" d="M488.92,838l3.16,9.13a3.18,3.18,0,0,1-1.24,3.73,8.2,8.2,0,0,1-2.61,1,3.69,3.69,0,0,1-4.09-1.85l-3.78-7.12Z"/><path class="cls-6" d="M519.67,755.79S480,762.67,463,778.4s15.63,65.91,15.63,65.91,5.35,0,11.83-5.6c0,0-19.36-37.73-2.68-48.74,18.76-12.37,40.38-15.15,40.38-15.15L520.05,757Z"/><path class="cls-16" d="M473.4,867.8c4.25-2,16.28-10.39,18.31-10.76s5.55,2,5.55,2a5.47,5.47,0,0,1-.06,4.23c-2.82,3.42-9.1,9.93-17.53,12.36-6.2,1.78-10.54.12-13.24-1.83A18.07,18.07,0,0,1,473.4,867.8Z"/><path class="cls-16" d="M479.67,875.64c8.43-2.43,14.71-8.94,17.53-12.36-.62,1.81-2,4.15-5.09,6.89-7.56,6.79-22,9.24-25.07,8.77-2.47-.38-2.23-2.65-.61-5.13C469.13,875.76,473.47,877.42,479.67,875.64Z"/><path class="cls-14" d="M500.86,853.11c0,1.17-2.44,5.19-3.84,7.44a3.66,3.66,0,0,1-3.09,1.73,9.46,9.46,0,0,1-2.55-.31,2.36,2.36,0,0,1-1.59-2.94l2.73-9.34Z"/><path class="cls-6" d="M557.88,743.88s8.81,23.57,0,30.74S528,789.86,523.33,804.13,510.66,846.16,500,856c0,0-7.5-.73-10.31-3.72,0,0,6.08-41.42,10.09-52,3.47-9.2,8.58-22.49,18.38-29.92,2.81-2.12,2.32-5.49,1-8.76l-2.37-5.95Z"/><path class="cls-16" d="M465.94,725.4c14.78.89,10.17-22.72,9.91-23.66l22.43,15.85s-1.19,12.62-19.84,19.25a23.21,23.21,0,0,1-12.84.93A20.49,20.49,0,0,0,465.94,725.4Z"/><path class="cls-14" d="M437.36,718.29c5.51-3.83,11.75,0,11.75,0,7.36,4.82,12.81,6.87,16.83,7.11a20.49,20.49,0,0,1-.34,12.37C457.35,736,451.44,730,448.88,727a2.67,2.67,0,0,0-3.69-.4c-1.15.9-2.26,2.14-2.06,3.45.4,2.57-2.59,3.39-2.81,2.46s1-6.47,1-6.47-6,6-8.31,8.31-5.26,0-5.26,0S431.85,722.13,437.36,718.29Z"/><path class="cls-16" d="M534.86,665.27s-21.5-8.61-61.52,24.43c0,0-3.35,6.92.3,13.08S512,739,516.81,755.59c0,0,20.7,6.72,42.11-9.23C558.92,746.36,557,700.05,534.86,665.27Z"/><path class="cls-14" d="M492.35,657.59l10.58,12.83a4.19,4.19,0,0,1,.56,4.53c-1.47,3-5,7.36-12.69,6.76a6.5,6.5,0,0,1-5.34-3.65l-7.4-15.3Z"/><path class="cls-16" d="M551.51,720.23c2.49-10.16-22.79-32.83-22.79-32.83l6.14-22.13s54.6,36.35,40.68,65.58a21.3,21.3,0,0,1-7.71,9.09C563.43,728.1,556.43,722.68,551.51,720.23Z"/><path class="cls-25" d="M551.52,718.75a.59.59,0,0,0,.58-.45c2.56-10.4-21.92-32.48-23-33.42a.6.6,0,0,0-.79.89c.25.22,25,22.54,22.6,32.24a.61.61,0,0,0,.44.73Z"/><path class="cls-14" d="M513.21,719.36s30,11.64,37.3,2.88a4.94,4.94,0,0,0,1-2c4.92,2.45,11.92,7.87,16.32,19.71-15.77,10.07-42.72-5.61-50-10.23a5.42,5.42,0,0,0-4-.74c-2.81.58-7.67,1.44-10.29,1-3.83-.59-9.33,12.92-15.54,8.75C488,738.76,493.29,715.27,513.21,719.36Z"/><path class="cls-14" d="M465.94,642.82s-.18,14,2.08,20.32,2.61,10.93,10.3,9.17,12.24-7.87,12.92-15.42c0,0,1.13-11.67-1.66-15.09S465.94,642.82,465.94,642.82Z"/><path class="cls-12" d="M486.92,653.48l-.91.38s.52-9.23-3.32-9.2-18,2.84-22.7-.6c-4.57-3.31-4.57-10.06-1.64-13.18a.52.52,0,0,1,.71,0l.54.44a.52.52,0,0,0,.85-.46h0a.53.53,0,0,1,.82-.51c1.44,1,4.71,2.29,11.42.82,9.54-2.08,16.89-1,19.6,5.1a.52.52,0,0,0,.92.08c.49-.67,1.45-1.29,3.34-.71,3.29,1,4.52,6.74,1,13.34a.52.52,0,0,0,.35.77c1.23.22,3.29,1.11.4,4.67s-5.31,4.37-6.25,4.51a.52.52,0,0,1-.58-.35L489.56,653a.53.53,0,0,0-.71-.31Z"/><path class="cls-14" d="M487.17,654.71s-1.2-8.38,3.07-7.68,1.79,9.19-.81,10.62Z"/><path class="cls-9" d="M386.75,877.22a2.72,2.72,0,0,1-1-.21,2.52,2.52,0,0,1-1.38-3.36l55.43-124.76a2.67,2.67,0,0,1,3.47-1.34,2.53,2.53,0,0,1,1.39,3.36L389.18,875.67A2.64,2.64,0,0,1,386.75,877.22Z"/><path class="cls-9" d="M449.2,877.22a2.65,2.65,0,0,1-2.43-1.55L391.34,750.91a2.52,2.52,0,0,1,1.38-3.36,2.68,2.68,0,0,1,3.48,1.34l55.43,124.76a2.52,2.52,0,0,1-1.38,3.36A2.77,2.77,0,0,1,449.2,877.22Z"/><path class="cls-9" d="M558.35,877.22a2.72,2.72,0,0,1-1-.21,2.53,2.53,0,0,1-1.39-3.36l55.44-124.76a2.67,2.67,0,0,1,3.47-1.34,2.52,2.52,0,0,1,1.38,3.36L560.78,875.67A2.65,2.65,0,0,1,558.35,877.22Z"/><path class="cls-9" d="M620.8,877.22a2.64,2.64,0,0,1-2.43-1.55L562.93,750.91a2.54,2.54,0,0,1,1.39-3.36,2.67,2.67,0,0,1,3.47,1.34l55.44,124.76a2.54,2.54,0,0,1-1.39,3.36A2.72,2.72,0,0,1,620.8,877.22Z"/><path class="cls-9" d="M627.3,745a3.06,3.06,0,0,0-.52-2.31,2.42,2.42,0,0,0-1.93-1H372.66a2.81,2.81,0,0,0-2.42,1.49,3.56,3.56,0,0,0-.18,3.07l2.73,6.63a3.83,3.83,0,0,0,3.47,2.48H623.12a3,3,0,0,0,2.85-2.62Z"/><path class="cls-19" d="M497.85,742.31h-.14l-62.9-.06a2.83,2.83,0,0,1-2.82-2.82,2.8,2.8,0,0,1,2.82-2.81l62.9.06a2.82,2.82,0,0,1,.14,5.63Z"/><path class="cls-19" d="M378.26,685.2h52.38a10,10,0,0,1,9,5.73l24.22,51.35h-65.1a6.05,6.05,0,0,1-5.64-3.84l-18.78-47.52A4.19,4.19,0,0,1,378.26,685.2Z"/><path class="cls-1" d="M415.17,711.53c1.13,3.53.29,7-1.88,7.65s-4.85-1.59-6-5.12-.3-6.95,1.87-7.65S414,708,415.17,711.53Z"/><circle class="cls-12" cx="399.72" cy="622.24" r="43.24"/><circle class="cls-16" cx="399.79" cy="622.6" r="37.61"/><path class="cls-6" d="M434.67,647.82l-46.12-46.13-4.86,4.46,42,49.93.29.33,1.49,1.62c2.55,2.78,6.13,3.64,8,1.92l2.23-2.05c1.87-1.72,1.32-5.36-1.23-8.14L435,648.14C434.88,648,434.78,647.92,434.67,647.82Zm-.84,8.11c-1.25,1.14-3.81.37-5.73-1.72s-2.47-4.72-1.22-5.86,3.8-.36,5.72,1.73S435.07,654.79,433.83,655.93Z"/><path class="cls-6" d="M375.94,583l8.62,9.4a2.93,2.93,0,0,1,.73,2.48l-.8,4.59a2.94,2.94,0,0,1-2.63,2.42l-4.64.4a2.94,2.94,0,0,1-2.41-.94l-8.62-9.4a2.25,2.25,0,0,0-3.9,1.25,16.86,16.86,0,0,0,4.4,13.15c6.2,6.76,15.74,6.57,22.24.61s7.51-15.45,1.31-22.21a16.83,16.83,0,0,0-12.72-5.52A2.25,2.25,0,0,0,375.94,583Z"/><path class="cls-6" d="M375.05,583.85l8.63,9.4a2.92,2.92,0,0,1,.72,2.48l-.8,4.58a2.91,2.91,0,0,1-2.63,2.42l-4.64.4a2.94,2.94,0,0,1-2.41-.94l-8.62-9.4a2.24,2.24,0,0,0-3.89,1.25,16.83,16.83,0,0,0,4.4,13.15c6.2,6.76,15.73,6.57,22.24.61s7.5-15.45,1.3-22.21a16.82,16.82,0,0,0-12.71-5.52A2.25,2.25,0,0,0,375.05,583.85Z"/><path class="cls-6" d="M434,648.47l-46.13-46.13L383,606.79l42,49.94c.1.11.19.22.29.32l1.49,1.62c2.55,2.78,6.14,3.64,8,1.92l2.23-2c1.87-1.72,1.33-5.37-1.22-8.15l-1.49-1.62Zm-.85,8.11c-1.24,1.14-3.81.37-5.73-1.72s-2.47-4.72-1.22-5.86,3.81-.37,5.73,1.73S434.36,655.44,433.12,656.58Z"/><polygon class="cls-6" points="390.8 629.25 394.17 632.19 424.76 596.41 422.1 594.09 390.8 629.25"/><path class="cls-6" d="M397.61,619.72l5.08,4.43a2.34,2.34,0,0,1,.27,3.24l-25.77,31.55a5.44,5.44,0,0,1-7.8.66L367,657.52a5.45,5.45,0,0,1-.4-7.82l27.77-29.81A2.32,2.32,0,0,1,397.61,619.72Z"/><rect class="cls-6" x="385.91" y="620.61" width="1.7" height="42.48" transform="translate(256.23 1379.76) rotate(-138.9)"/><rect class="cls-6" x="383.57" y="618.57" width="1.7" height="42.48" transform="translate(253.46 1374.65) rotate(-138.9)"/><rect class="cls-6" x="381.24" y="616.53" width="1.7" height="42.48" transform="translate(250.72 1369.54) rotate(-138.9)"/><path class="cls-6" d="M432.82,582.8l1.68,1.46a1.21,1.21,0,0,1,.38,1.41l-3,5.88a.81.81,0,0,1-.25.3L425,597a1.18,1.18,0,0,1-1.48-.16l-1.77-1.54a1.19,1.19,0,0,1-.35-1.47l4.34-7.2a.88.88,0,0,1,.25-.26l5.43-3.75A1.2,1.2,0,0,1,432.82,582.8Z"/><path class="cls-1" d="M665.4,623C650,658.08,627,673.73,592,679.25a5.89,5.89,0,0,1-5.82-2.53l-.75-1.1a5.89,5.89,0,0,1,3.42-9c28.52-7.38,48.62-14.74,66-48.67a5.89,5.89,0,0,1,9.73-1.14h0A5.91,5.91,0,0,1,665.4,623Z"/><path class="cls-1" d="M669.51,639.09l-.82-31.86a1.28,1.28,0,0,0-1.92-1.08l-26.63,15.19a1.48,1.48,0,0,0,0,2.57,65.61,65.61,0,0,1,27.46,16.31A1.28,1.28,0,0,0,669.51,639.09Z"/><path class="cls-1" d="M934.11,605c8.19,34,26.35,51.79,57,62.41a5.4,5.4,0,0,0,5.64-1.34l.85-.87a5.39,5.39,0,0,0-1.62-8.65c-24.47-11.23-41.36-21.09-51.48-54.39a5.39,5.39,0,0,0-8.57-2.59h0A5.39,5.39,0,0,0,934.11,605Z"/><path class="cls-1" d="M927.83,618.8l5.87-28.52a1.17,1.17,0,0,1,1.9-.67l21.5,17.95a1.36,1.36,0,0,1-.39,2.32,60,60,0,0,0-27.32,10.25A1.17,1.17,0,0,1,927.83,618.8Z"/><path class="cls-15" d="M1020.72,649.68c-1.15,41-4.87,182.47-3.09,232.6.19,5.31,5,9.58,11,9.75,29.67.86,138.43,3,187,1.24,10.11-.38,18.14-7.63,18.35-16.58,1-43.05,3.24-164.12-2-219.58-.64-6.65-6.53-11.94-14-12.6-32.31-2.86-141.54-9.86-183.46-7.45C1026.84,637.49,1020.91,643,1020.72,649.68Z"/><path class="cls-19" d="M1034,659.24c-1.6,9.58-6.63,41.47-5,53.26.23,1.73,5.53,3.12,12.24,3.22,27.65.42,122,1.33,162.54.5,7.3-.15,13-1.67,13.42-3.54,2.06-9.78,8-39.47,6.43-51.13-.25-1.86-5.87-3.38-13.1-3.55-29.91-.69-130.15-2.32-164.61-1.84C1039.38,656.25,1034.24,657.58,1034,659.24Z"/><path class="cls-1" d="M1211,667.57a8,8,0,0,0-5.59-2.43L1050,662.67a8,8,0,0,0-8,7.22l-3.23,34.47c-.27,2.82,4.38,5.2,10.3,5.27l152.75,1.85c5.91.07,10.8-2.18,10.85-5l.58-33.24A8,8,0,0,0,1211,667.57Z"/><rect class="cls-6" x="1035.19" y="738.8" width="36.09" height="22.26" rx="10.88"/><rect class="cls-6" x="1086.32" y="738.8" width="36.09" height="22.26" rx="10.88"/><rect class="cls-6" x="1133.84" y="738.8" width="36.09" height="22.26" rx="10.88"/><path class="cls-6" d="M1218.16,751.45a11.28,11.28,0,0,1-11.28,11.29h-13.07a11.28,11.28,0,0,1-11.28-11.29h0a11.28,11.28,0,0,1,11.28-11.28h13.07a11.28,11.28,0,0,1,11.28,11.28Z"/><rect class="cls-26" x="1035.19" y="773.09" width="36.09" height="22.26" rx="10.88"/><rect class="cls-26" x="1086.32" y="773.09" width="36.09" height="22.26" rx="10.88"/><rect class="cls-26" x="1133.84" y="773.09" width="36.09" height="22.26" rx="10.88"/><rect class="cls-6" x="1184.97" y="773.09" width="36.09" height="22.26" rx="10.88"/><rect class="cls-26" x="1035.19" y="806.17" width="36.09" height="22.26" rx="10.88"/><rect class="cls-26" x="1086.32" y="806.17" width="36.09" height="22.26" rx="10.88"/><rect class="cls-26" x="1133.84" y="806.17" width="36.09" height="22.26" rx="10.88"/><rect class="cls-26" x="1035.19" y="839.86" width="36.09" height="22.26" rx="10.88"/><rect class="cls-26" x="1086.32" y="839.86" width="36.09" height="22.26" rx="10.88"/><rect class="cls-26" x="1133.84" y="839.86" width="36.09" height="22.26" rx="10.88"/><rect class="cls-6" x="1186.78" y="807.38" width="28.27" height="54.74" rx="14.05"/><circle class="cls-12" cx="1240.6" cy="621.47" r="25"/><circle class="cls-27" cx="1241.14" cy="622.01" r="21.16" transform="translate(429.29 1748.17) rotate(-80.83)"/><path class="cls-12" d="M1239.06,637.74v-2.3a18.5,18.5,0,0,1-6.45-1.4,1.33,1.33,0,0,1-.74-1.57l.58-2.15a1.35,1.35,0,0,1,1.83-.87,15.56,15.56,0,0,0,6,1.25c2.31,0,4-.78,4-2.39,0-1.45-1.34-2.31-4.55-3.17-4.58-1.25-7.87-3.25-7.87-7.29,0-3.64,2.66-6.42,7.28-7.17v-2.3a1.34,1.34,0,0,1,1.34-1.34h1.36a1.34,1.34,0,0,1,1.34,1.34v2.07a17.16,17.16,0,0,1,5.12.92,1.33,1.33,0,0,1,.83,1.61l-.54,2a1.33,1.33,0,0,1-1.76.91,13.86,13.86,0,0,0-5-.92c-2.75,0-3.53,1.14-3.53,2.16,0,1.25,1.65,2.11,5.21,3.21,5.09,1.53,7.21,3.64,7.21,7.44,0,3.49-2.59,6.62-7.6,7.41v2.57a1.34,1.34,0,0,1-1.34,1.35h-1.35A1.35,1.35,0,0,1,1239.06,637.74Z"/><circle class="cls-12" cx="1197.19" cy="568.19" r="18.88"/><circle class="cls-27" cx="1197.6" cy="568.6" r="15.98" transform="translate(328.15 1569.41) rotate(-74.42)"/><path class="cls-12" d="M1196,580.48v-1.73a14.53,14.53,0,0,1-4.88-1.06,1,1,0,0,1-.55-1.19l.44-1.62a1,1,0,0,1,1.37-.66,11.83,11.83,0,0,0,4.51.95c1.74,0,3-.6,3-1.81s-1-1.75-3.43-2.4c-3.46-.94-5.94-2.45-5.94-5.5,0-2.75,2-4.85,5.5-5.41v-1.74a1,1,0,0,1,1-1h1a1,1,0,0,1,1,1v1.56a13.05,13.05,0,0,1,3.86.69,1,1,0,0,1,.63,1.22l-.4,1.5a1,1,0,0,1-1.34.68,10.46,10.46,0,0,0-3.79-.69c-2.07,0-2.66.86-2.66,1.63,0,.94,1.24,1.6,3.93,2.42,3.85,1.16,5.45,2.76,5.45,5.63,0,2.63-2,5-5.74,5.59v1.94a1,1,0,0,1-1,1h-1A1,1,0,0,1,1196,580.48Z"/><circle class="cls-12" cx="1165.91" cy="630.62" r="32.3" transform="translate(-104.43 1009.13) rotate(-45)"/><circle class="cls-27" cx="1166.62" cy="631.32" r="27.34" transform="translate(-151.61 483.53) rotate(-22.02)"/><path class="cls-12" d="M1163.93,651.65v-3a23.94,23.94,0,0,1-8.34-1.81,1.71,1.71,0,0,1-.95-2l.75-2.77a1.74,1.74,0,0,1,2.36-1.14,20,20,0,0,0,7.7,1.63c3,0,5.22-1,5.22-3.09,0-1.87-1.73-3-5.88-4.1-5.92-1.62-10.17-4.2-10.17-9.42,0-4.7,3.44-8.3,9.41-9.26v-3a1.74,1.74,0,0,1,1.74-1.73h1.74a1.74,1.74,0,0,1,1.74,1.73v2.68a22,22,0,0,1,6.61,1.18,1.73,1.73,0,0,1,1.08,2.09l-.69,2.56a1.74,1.74,0,0,1-2.29,1.17,17.92,17.92,0,0,0-6.48-1.18c-3.55,0-4.56,1.47-4.56,2.78,0,1.62,2.13,2.73,6.73,4.15,6.58,2,9.32,4.71,9.32,9.62,0,4.51-3.34,8.56-9.82,9.57v3.33a1.74,1.74,0,0,1-1.74,1.73h-1.74A1.74,1.74,0,0,1,1163.93,651.65Z"/><path class="cls-28" d="M1198.82,651c-.21.67,2.25,1.7,3.7-1.06,0-1.33.85-7,.06-8.08-4.21-5.75-12.38-13-12.38-13a1.94,1.94,0,0,0-.25,2.7l4,4.13a19.31,19.31,0,0,0-2.32,4.58,5.49,5.49,0,0,0,.56,4.08,45.52,45.52,0,0,0,2.54,4.16A5.49,5.49,0,0,0,1198.82,651Z"/><path class="cls-29" d="M1195.65,638.4l3.61,3.06,1.14,3-3.22,3.57s-1.09-6-1.89-7.35S1194.9,638.78,1195.65,638.4Z"/><path class="cls-9" d="M1269.78,876.51s.91,5.17,1.36,10.28a3.52,3.52,0,0,1-3.37,3.82c-6.81.28-21.38.84-26.61.6a1.15,1.15,0,0,1-1-1.57h0a2.58,2.58,0,0,1,1.32-1.38l24.06-11.06Z"/><path class="cls-30" d="M1270.53,873.48l-.73,6.18s-4.22,2-7.1-.25l1.75-6.89Z"/><path class="cls-6" d="M1270,757.29c.32,1.61,1.7,80.54-6.74,115.9a1.2,1.2,0,0,0,.71,1.4,21,21,0,0,0,6.87,1.4,2.07,2.07,0,0,0,2-1.49c2.41-8.2,14-49.32,15.47-88.59,1.69-43.89,0-1.5,0-1.5l-1-27.13Z"/><path class="cls-9" d="M1297.47,879.21s1.45,2.61,2.85,9.54a2.14,2.14,0,0,1-1.89,2.57c-2.25.22-5.71.51-8.48.49a2.14,2.14,0,0,1-2.12-2.39,18,18,0,0,1,4.22-9.92Z"/><path class="cls-31" d="M1298.74,871.26,1297,880.6s-1.7,1.26-5,.35l.82-10.06Z"/><path class="cls-6" d="M1303.37,759.71c6.9,41.64-1.5,102.92-4.33,114.91a1.85,1.85,0,0,1-1.51,1.42,12.65,12.65,0,0,1-5.4-.21,1.73,1.73,0,0,1-1.23-1.58c-.38-9.7.31-69.23-6.12-92.75a5.43,5.43,0,0,0-2.06-3l-12.48-8.87-1-14.34Z"/><path class="cls-9" d="M1259.4,680.81c20.68-.34,43.5,5.43,43.5,5.43,6.16,36,1.07,77.44,1.07,77.44-16,4.2-34.06-2.56-34.06-2.56-2.66-15-15.08-57.34-15.08-57.34a68.06,68.06,0,0,1-25.27-8c5.22-6.06,7.69-13.77,8.76-18.33A69.6,69.6,0,0,0,1259.4,680.81Z"/><path class="cls-32" d="M1198.33,650.35a4,4,0,0,1,4.6-1.29c3,12.85,19,23.27,35.39,28.37-1.07,4.56-3.54,12.27-8.76,18.33C1202.35,680.46,1198.33,650.35,1198.33,650.35Z"/><path class="cls-9" d="M1295,706.26l7.93-20s19.31,13.12,22.49,29.76a45.77,45.77,0,0,0-16.79,4.5C1307.17,712.64,1295,706.26,1295,706.26Z"/><path class="cls-33" d="M1280.35,664l6.58,19a.68.68,0,0,1-.31.82c-1.8,1-8.26,3.86-16-1.08a3.2,3.2,0,0,1-1.48-2.3L1267,664Z"/><path class="cls-34" d="M1266,646.4s-7.22,13.6-6.3,19.1,9.88,5.09,17.7.63l5.47-14.68Z"/><path class="cls-18" d="M1277.09,658.92a.56.56,0,0,1-.25-.82,14.4,14.4,0,0,0,2-4.27s1.3-.83-3.3-1.93-11.47-2.81-12.92-6.73,2.29-13.43,8.19-5.78a.56.56,0,0,0,.89,0c1-1.26,3.51-3.87,7-2.29,3.3,1.48,3.67,3.9,3.63,5.12a.57.57,0,0,0,.66.58c1.67-.32,5.68-.6,7.55,3.51,1.54,3.39.54,5.31-.38,6.24a.56.56,0,0,0,.24.93c1.1.34,2.52,1.27,2.38,3.84-.2,3.55-4.17,3.24-5.31,3.08a.54.54,0,0,0-.49.18c-1,1.07-5.35,5.63-10.08,6.18a.57.57,0,0,1-.59-.75l2.05-5.95a.57.57,0,0,0-.31-.7Z"/><path class="cls-35" d="M1276.26,659.77s5.15-3.53,5.52-.56-4.63,4.3-7.11,3.2Z"/><path class="cls-36" d="M1308.6,720.5s6.75,30.45.63,47.57c7.5,3.48,6.11,2.82,6.11,2.82s14.83-43.33,10.05-54.89C1316,715,1311.26,717.53,1308.6,720.5Z"/><path class="cls-37" d="M1309.23,768.07s-3.86,5-3.55,7,.38,2.8.38,2.8,1.94-1.33,1.82-3c-.27,5.39-2.07,11.51-.43,11.22s10.12-8.12,8.2-16.45C1311.3,766.58,1310.08,766.91,1309.23,768.07Z"/></svg>