<svg id="Capa_1" data-name="Capa 1" xmlns="http://www.w3.org/2000/svg" viewBox="0 0 1000 561.17"><defs><style>.cls-1{fill:#034c8c;}.cls-2{fill:#fff;}</style></defs><path class="cls-1" d="M864.25,0H0V425.41A135.76,135.76,0,0,0,135.75,561.17H1000V135.75A135.75,135.75,0,0,0,864.25,0Z"/><path class="cls-2" d="M135.08,197.16a25,25,0,1,1-24.82-24.82A24.68,24.68,0,0,1,135.08,197.16ZM131,387.44H87.33V240.67H131Z"/><path class="cls-2" d="M206.84,263.35c12.25-14.14,26.08-23.56,47.13-23.56,26.7,0,41.15,15.39,47.44,28.27,5.34,10.68,5.65,21.05,5.65,33.93v85.45H261.19V305.76c0-9.11,0-15.39-2.2-20.74-3.14-8.79-11.31-13.5-20.42-13.5-18.22,0-29.84,19.47-31.73,22.62v93.3H161.29V242.61h45.55Z"/><path class="cls-2" d="M385.91,314.24l57.17-71.63h53.1l-56.55,71.63,59.06,73.2H443.08l-57.17-71.31v71.31H340V195h45.87Z"/><path class="cls-2" d="M656.08,387.44H610.21V366.71c-15.71,22.3-36.76,23.56-45.87,23.56-29.22,0-44.3-18.22-49.64-32-3.14-8.79-3.14-17.27-3.14-25.13V242.61h45.87V319.9c0,17.59,0,38.64,22,38.64,5.66,0,18.54-1.57,30.79-20.42V242.61h45.87Z"/><path class="cls-2" d="M913.68,387.44H856.19L838.6,345H742.78l-16,42.41H670.21L756.6,176.23h61.89ZM788.33,224.71l-31.42,82.93h66Z"/></svg>
